<svg viewBox="0 0 96 96" xmlns="http://www.w3.org/2000/svg" xmlns:xlink="http://www.w3.org/1999/xlink" id="Icons_HeartLock" overflow="hidden"><path d="M48 49.65C43.66 41.34 38.1 38.36 33 38.51L33 28.1C33 19.8157 39.7157 13.1 48 13.1 56.2843 13.1 63 19.8157 63 28.1L63 32.1 69 32.1 69 28.1C69 16.502 59.598 7.1 48 7.1 36.402 7.1 27 16.502 27 28.1L27 40.17C22.21 42.75 18.75 47.94 18.75 52.97 18.75 70.41 48 88.9 48 88.9 48 88.9 77.25 70.41 77.25 53 77.25 41.35 58.84 28.89 48 49.65ZM50 67.75 50 73.1 46 73.1 46 67.75C42.8758 66.6454 41.2386 63.2173 42.3431 60.0931 43.4477 56.969 46.8758 55.3317 50 56.4363 53.1242 57.5409 54.7614 60.969 53.6569 64.0931 53.0527 65.8018 51.7087 67.1459 50 67.75Z"/></svg>